<?xml version="1.0" encoding="utf-8"?>
<!-- Generator: Adobe Illustrator 19.2.0, SVG Export Plug-In . SVG Version: 6.00 Build 0)  -->
<svg version="1.1" id="Layer_1" xmlns="http://www.w3.org/2000/svg" xmlns:xlink="http://www.w3.org/1999/xlink" x="0px" y="0px"
	 width="24px" height="24px" viewBox="0 0 24 24" enable-background="new 0 0 24 24" xml:space="preserve">
<rect fill="none" width="24" height="24"/>
<path fill-rule="evenodd" clip-rule="evenodd" d="M20.693,15.854l-2.258-3.387c-0.458-0.687-0.7-1.487-0.7-2.313V8.264c0-3.162-2.573-5.735-5.735-5.735
	S6.265,5.102,6.265,8.264v1.889c0,0.826-0.242,1.626-0.7,2.313l-2.258,3.387c-0.374,0.561-0.409,1.279-0.09,1.873
	c0.318,0.594,0.934,0.964,1.609,0.964h4.068C9.067,20.252,10.393,21.47,12,21.47s2.933-1.218,3.107-2.779h4.068
	c0.674,0,1.291-0.369,1.609-0.964C21.102,17.133,21.067,16.415,20.693,15.854z M12,19.906c-0.742,0-1.364-0.52-1.523-1.215h3.047
	C13.364,19.386,12.742,19.906,12,19.906z M19.405,16.989c-0.027,0.051-0.094,0.138-0.23,0.138H4.825
	c-0.136,0-0.202-0.086-0.23-0.138c-0.028-0.051-0.062-0.155,0.013-0.268l2.258-3.387c0.63-0.945,0.963-2.045,0.963-3.181V8.264
	c0-2.3,1.871-4.171,4.171-4.171s4.171,1.871,4.171,4.171v1.889c0,1.136,0.333,2.236,0.963,3.181l2.258,3.387
	C19.467,16.835,19.432,16.938,19.405,16.989z"/>
</svg>
