<?xml version="1.0" encoding="utf-8"?>
<!-- Generator: Adobe Illustrator 19.2.0, SVG Export Plug-In . SVG Version: 6.00 Build 0)  -->
<svg version="1.1" id="Layer_1" xmlns="http://www.w3.org/2000/svg" xmlns:xlink="http://www.w3.org/1999/xlink" x="0px" y="0px"
	 width="24px" height="24px" viewBox="0 0 24 24" enable-background="new 0 0 24 24" xml:space="preserve">
<rect fill="none" width="24" height="24" fill-rule="evenodd" clip-rule="evenodd"/>
<g>
	<path d="M14.342,21.8c-0.254,0-0.501-0.121-0.655-0.34l-1.182-1.686c-0.341,0.026-0.692,0.025-1.034-0.002
		l-1.188,1.682c-0.226,0.318-0.65,0.431-1.001,0.258l-3.148-1.522c-0.352-0.17-0.53-0.569-0.419-0.944l0.573-1.955
		c-0.24-0.26-0.463-0.537-0.667-0.828L3.593,16.58c-0.397,0.021-0.74-0.24-0.827-0.621l-0.775-3.41
		c-0.086-0.382,0.115-0.77,0.477-0.918l1.825-0.747c0.054-0.376,0.137-0.749,0.246-1.114L3.228,8.312
		c-0.261-0.291-0.274-0.728-0.03-1.034L5.38,4.545c0.243-0.305,0.673-0.391,1.015-0.2l1.667,0.929
		C8.409,5.071,8.772,4.895,9.15,4.747l0.313-1.878C9.527,2.483,9.861,2.2,10.252,2.2h3.497c0.391,0,0.725,0.283,0.789,0.668
		l0.313,1.879c0.385,0.151,0.756,0.332,1.11,0.542l1.672-0.924c0.342-0.189,0.771-0.104,1.014,0.203l2.172,2.741
		c0.243,0.307,0.229,0.744-0.033,1.034L19.47,9.797c0.107,0.365,0.188,0.737,0.241,1.113l1.823,0.754
		c0.361,0.149,0.562,0.538,0.474,0.919l-0.786,3.407c-0.088,0.381-0.425,0.637-0.828,0.619l-2.027-0.125
		c-0.205,0.29-0.429,0.565-0.669,0.824l0.566,1.958c0.108,0.376-0.07,0.775-0.423,0.944l-3.153,1.511
		C14.576,21.774,14.459,21.8,14.342,21.8z M12.89,18.131c0.259,0,0.504,0.125,0.655,0.34l1.062,1.515l1.931-0.925l-0.509-1.759
		c-0.083-0.288,0.002-0.599,0.22-0.805c0.392-0.369,0.735-0.793,1.022-1.259c0.155-0.253,0.436-0.393,0.73-0.38l1.813,0.112
		l0.481-2.087l-1.636-0.676c-0.279-0.116-0.47-0.378-0.492-0.68c-0.042-0.562-0.162-1.117-0.356-1.648
		c-0.102-0.279-0.04-0.591,0.158-0.811l1.174-1.297l-1.33-1.679l-1.493,0.826c-0.262,0.146-0.587,0.131-0.837-0.039
		c-0.488-0.333-1.023-0.593-1.589-0.775c-0.285-0.091-0.496-0.334-0.545-0.63L13.071,3.8H10.93l-0.279,1.674
		c-0.049,0.295-0.259,0.539-0.545,0.63c-0.562,0.18-1.091,0.437-1.572,0.762C8.284,7.036,7.961,7.05,7.696,6.902l-1.488-0.83
		L4.871,7.746L6.04,9.047C6.238,9.268,6.298,9.58,6.195,9.859c-0.197,0.534-0.319,1.088-0.364,1.649
		c-0.023,0.301-0.215,0.563-0.494,0.678l-1.636,0.669l0.475,2.089l1.812-0.106c0.29-0.022,0.576,0.13,0.73,0.383
		c0.284,0.466,0.627,0.892,1.02,1.266c0.217,0.206,0.3,0.517,0.216,0.804l-0.514,1.756l1.928,0.932l1.068-1.511
		c0.171-0.242,0.458-0.373,0.757-0.331c0.524,0.067,1.073,0.069,1.597,0.002C12.823,18.133,12.856,18.131,12.89,18.131z"/>
	<path d="M12,15.8c-2.095,0-3.8-1.704-3.8-3.8c0-2.095,1.705-3.8,3.8-3.8c2.096,0,3.8,1.705,3.8,3.8
		C15.8,14.096,14.096,15.8,12,15.8z M12,9.8c-1.213,0-2.2,0.987-2.2,2.2s0.987,2.2,2.2,2.2s2.2-0.987,2.2-2.2S13.213,9.8,12,9.8z"/>
</g>
</svg>
