<?xml version="1.0" encoding="utf-8"?>
<!-- Generator: Adobe Illustrator 19.2.0, SVG Export Plug-In . SVG Version: 6.00 Build 0)  -->
<svg version="1.1" id="Layer_1" xmlns="http://www.w3.org/2000/svg" xmlns:xlink="http://www.w3.org/1999/xlink" x="0px" y="0px"
	 width="24px" height="24px" viewBox="0 0 24 24" enable-background="new 0 0 24 24" xml:space="preserve">
<rect fill="none" width="24" height="24"/>
<path fill-rule="evenodd" clip-rule="evenodd" d="M12,2C6.486,2,2,6.486,2,12s4.486,10,10,10s10-4.486,10-10S17.514,2,12,2z M12,3.538
	c2.629,0,4.982,1.206,6.535,3.093l-0.404,0.81C18.03,7.643,17.826,7.769,17.6,7.769h-4.627c-0.91,0-1.721,0.579-2.017,1.441
	l-1.772,5.177c-0.082,0.24-0.308,0.401-0.561,0.401c-0.288,0-0.534-0.206-0.584-0.489l-0.467-2.637
	c-0.18-1.02-1.063-1.76-2.099-1.76H3.812C4.749,6.25,8.06,3.538,12,3.538z M3.538,12c0-0.189,0.016-0.374,0.028-0.56h1.906
	c0.288,0,0.534,0.206,0.584,0.489l0.467,2.637c0.18,1.02,1.063,1.76,2.099,1.76c0.91,0,1.721-0.579,2.017-1.441l1.772-5.177
	c0.082-0.24,0.308-0.401,0.561-0.401H17.6c0.813,0,1.544-0.452,1.907-1.179l0.004-0.009c0.604,1.164,0.951,2.481,0.951,3.88
	c0,0.694-0.093,1.364-0.251,2.01l-2.266-0.375c-1.342-0.219-2.639,0.641-2.954,1.963l-0.171,0.719
	c-0.291,1.221,0.35,2.459,1.47,2.964c-1.26,0.745-2.723,1.18-4.289,1.18C7.334,20.462,3.538,16.666,3.538,12z M17.776,18.166
	l-0.745-0.235c-0.529-0.166-0.842-0.719-0.714-1.258l0.171-0.719c0.128-0.54,0.655-0.896,1.206-0.801l2.008,0.332
	C19.239,16.503,18.582,17.411,17.776,18.166z"/>
</svg>
